
<svg xmlns="http://www.w3.org/2000/svg" xmlns:xlink="http://www.w3.org/1999/xlink" width="30px" height="24px" viewBox="0 0 30 24" version="1.1">
<g id="surface1">
<path style=" stroke:none;fill-rule:nonzero;fill:rgb(0%,0%,0%);fill-opacity:1;" d="M 21 3 L 9 3 C 4.03125 3 0 6.988281 0 12 C 0 17.011719 4.03125 21 9 21 L 21 21 C 25.96875 21 30 16.96875 30 12 C 30 7.03125 25.96875 3 21 3 Z M 11.582031 13.125 L 10.082031 13.125 L 10.082031 14.625 C 10.082031 15.242188 9.578125 15.75 8.957031 15.75 C 8.339844 15.75 7.832031 15.242188 7.832031 14.625 L 7.832031 13.125 L 6.375 13.082031 C 5.757812 13.082031 5.207031 12.617188 5.207031 12 C 5.207031 11.382812 5.714844 10.875 6.335938 10.875 L 7.832031 10.875 L 7.832031 9.375 C 7.832031 8.757812 8.339844 8.25 8.957031 8.25 C 9.578125 8.25 10.082031 8.757812 10.082031 9.375 L 10.082031 10.875 L 11.582031 10.875 C 12.203125 10.875 12.707031 11.382812 12.707031 12 C 12.707031 12.617188 12.242188 13.125 11.582031 13.125 Z M 20.207031 16.125 C 19.171875 16.125 18.375 15.289062 18.375 14.292969 C 18.375 13.296875 19.210938 12.417969 20.207031 12.417969 C 21.203125 12.417969 22.039062 13.253906 22.039062 14.292969 C 22.039062 15.328125 21.285156 16.125 20.207031 16.125 Z M 23.207031 11.625 C 22.171875 11.625 21.375 10.789062 21.375 9.792969 C 21.375 8.796875 22.210938 7.917969 23.207031 7.917969 C 24.246094 7.917969 25.039062 8.753906 25.039062 9.792969 C 25.039062 10.828125 24.285156 11.625 23.207031 11.625 Z M 23.207031 11.625 "/>
</g>
</svg>
