
<svg xmlns="http://www.w3.org/2000/svg" xmlns:xlink="http://www.w3.org/1999/xlink" width="30px" height="30px" viewBox="0 0 30 30" version="1.1">
<g id="surface1">
<path fill="white" style=" stroke:none;fill-rule:nonzero;;fill-opacity:1;" d="M 30 16.867188 L 30 23.429688 C 29.945312 26.023438 27.898438 28.125 25.3125 28.125 C 23.761719 28.125 22.5 26.863281 22.5 25.308594 L 22.5 17.820312 C 22.5 16.265625 23.757812 15 25.3125 15 C 25.945312 15 26.539062 15.160156 27.085938 15.390625 C 26.351562 9.320312 21.21875 4.695312 15 4.695312 C 8.78125 4.695312 3.648438 9.320312 2.914062 15.390625 C 3.460938 15.15625 4.054688 15 4.6875 15 C 6.242188 15 7.5 16.265625 7.5 17.820312 L 7.5 25.3125 C 7.5 26.859375 6.242188 28.125 4.6875 28.125 C 2.101562 28.125 0.0546875 26.023438 0.0546875 23.433594 L 0 16.875 C 0 8.601562 6.726562 1.875 15 1.875 C 23.257812 1.875 29.976562 8.585938 29.945312 16.835938 C 29.945312 16.84375 29.945312 16.859375 30 16.867188 Z M 30 16.867188 "/>
</g>
</svg>
