
<svg xmlns="http://www.w3.org/2000/svg" xmlns:xlink="http://www.w3.org/1999/xlink" width="30px" height="30px" viewBox="0 0 30 30" version="1.1">
<g id="surface1">
<path style=" stroke:none;fill-rule:nonzero;fill:rgb(0%,0%,0%);fill-opacity:1;" d="M 15 30 C 6.714844 30 0 23.285156 0 15 C 0 6.714844 6.714844 0 15 0 C 23.285156 0 30 6.714844 30 15 C 30 23.285156 23.285156 30 15 30 Z M 13.59375 15 C 13.59375 15.46875 13.828125 15.90625 14.21875 16.117188 L 19.84375 19.867188 C 20.492188 20.351562 21.363281 20.171875 21.742188 19.53125 C 22.226562 18.882812 22.046875 18.011719 21.40625 17.578125 L 16.40625 14.25 L 16.40625 7.03125 C 16.40625 6.25 15.78125 5.625 14.945312 5.625 C 14.21875 5.625 13.539062 6.25 13.539062 7.03125 Z M 13.59375 15 "/>
</g>
</svg>
