<?xml version="1.0" encoding="UTF-8"?>
<svg xmlns="http://www.w3.org/2000/svg" xmlns:xlink="http://www.w3.org/1999/xlink" width="14px" height="16px" viewBox="0 0 14 16" version="1.1">
<g id="surface1">
<path fill='#fff' style=" stroke:none;fill-rule:nonzero;fill-opacity:1;" d="M 7 6.332031 C 6.078125 6.332031 5.332031 7.078125 5.332031 8 C 5.332031 8.921875 6.082031 9.667969 7 9.667969 C 7.921875 9.667969 8.667969 8.921875 8.667969 8 C 8.667969 7.078125 7.921875 6.332031 7 6.332031 Z M 10.898438 5.050781 C 10.726562 4.617188 10.382812 4.273438 9.945312 4.101562 C 9.289062 3.84375 7.726562 3.902344 7 3.902344 C 6.273438 3.902344 4.710938 3.839844 4.054688 4.101562 C 3.617188 4.273438 3.273438 4.617188 3.101562 5.050781 C 2.84375 5.707031 2.902344 7.273438 2.902344 8 C 2.902344 8.726562 2.84375 10.289062 3.105469 10.949219 C 3.273438 11.382812 3.621094 11.726562 4.054688 11.898438 C 4.710938 12.15625 6.273438 12.097656 7 12.097656 C 7.730469 12.097656 9.289062 12.160156 9.949219 11.898438 C 10.382812 11.726562 10.726562 11.382812 10.898438 10.949219 C 11.160156 10.292969 11.097656 8.726562 11.097656 8 C 11.097656 7.273438 11.160156 5.710938 10.898438 5.050781 Z M 7 10.5625 C 5.585938 10.5625 4.4375 9.414062 4.4375 8 C 4.4375 6.585938 5.585938 5.4375 7 5.4375 C 8.414062 5.4375 9.5625 6.585938 9.5625 8 C 9.5625 8.679688 9.292969 9.332031 8.8125 9.8125 C 8.332031 10.292969 7.679688 10.5625 7 10.5625 Z M 9.667969 5.929688 C 9.335938 5.929688 9.070312 5.660156 9.070312 5.332031 C 9.070312 5 9.335938 4.730469 9.667969 4.730469 C 10 4.730469 10.265625 5 10.265625 5.328125 C 10.265625 5.488281 10.203125 5.640625 10.09375 5.753906 C 9.980469 5.867188 9.828125 5.929688 9.667969 5.929688 Z M 12.5 1 L 1.5 1 C 0.671875 1 0 1.671875 0 2.5 L 0 13.5 C 0 14.328125 0.671875 15 1.5 15 L 12.5 15 C 13.328125 15 14 14.328125 14 13.5 L 14 2.5 C 14 1.671875 13.328125 1 12.5 1 Z M 11.964844 10.0625 C 11.925781 10.863281 11.742188 11.574219 11.15625 12.15625 C 10.574219 12.738281 9.863281 12.925781 9.0625 12.964844 C 8.238281 13.011719 5.765625 13.011719 4.9375 12.964844 C 4.136719 12.921875 3.429688 12.742188 2.84375 12.15625 C 2.257812 11.570312 2.074219 10.863281 2.035156 10.0625 C 1.992188 9.238281 1.992188 6.761719 2.035156 5.9375 C 2.078125 5.136719 2.257812 4.425781 2.84375 3.84375 C 3.429688 3.261719 4.140625 3.078125 4.9375 3.039062 C 5.765625 2.992188 8.238281 2.992188 9.0625 3.039062 C 9.863281 3.078125 10.574219 3.261719 11.15625 3.847656 C 11.742188 4.429688 11.925781 5.140625 11.964844 5.941406 C 12.011719 6.765625 12.011719 9.234375 11.964844 10.0625 Z M 11.964844 10.0625 "/>
</g>
</svg>
