<?xml version="1.0" encoding="UTF-8"?>
<svg xmlns="http://www.w3.org/2000/svg" xmlns:xlink="http://www.w3.org/1999/xlink" width="30px" height="24px" viewBox="0 0 30 24" version="1.1">
<g id="surface1">
<path fill="white" style=" stroke:none;fill-rule:nonzero;fill-opacity:1;" d="M 6 4.5 L 24 4.5 L 24 16.5 L 27 16.5 L 27 3.75 C 27 2.511719 25.988281 1.5 24.75 1.5 L 5.25 1.5 C 4.011719 1.5 3 2.511719 3 3.75 L 3 16.5 L 6 16.5 Z M 29.25 17.957031 L 0.75 17.957031 C 0.339844 17.957031 0 18.296875 0 18.707031 L 0 19.457031 C 0 21.109375 1.347656 22.457031 3 22.457031 L 27 22.457031 C 28.652344 22.457031 30 21.109375 30 19.457031 L 30 18.707031 C 30 18.335938 29.664062 17.957031 29.25 17.957031 Z M 29.25 17.957031 "/>
</g>
</svg>
