
<svg xmlns="http://www.w3.org/2000/svg" xmlns:xlink="http://www.w3.org/1999/xlink" width="23px" height="30px" viewBox="0 0 23 30" version="1.1">
<g id="surface1">
<path fill="white" style=" stroke:none;fill-rule:nonzero;fill-opacity:1;" d="M 19.167969 0 L 3.832031 0 C 2.246094 0 0.957031 1.257812 0.957031 2.8125 L 0.957031 27.1875 C 0.957031 28.742188 2.246094 30 3.832031 30 L 19.167969 30 C 20.753906 30 22.042969 28.742188 22.042969 27.1875 L 22.042969 2.8125 C 22.042969 1.257812 20.753906 0 19.167969 0 Z M 14.375 26.195312 C 14.375 26.765625 13.945312 27.1875 13.417969 27.1875 L 9.53125 27.1875 C 9.054688 27.1875 8.625 26.765625 8.625 26.25 C 8.625 25.734375 9.054688 25.3125 9.582031 25.3125 L 13.417969 25.3125 C 13.945312 25.3125 14.375 25.734375 14.375 26.195312 Z M 18.207031 22.5 L 4.792969 22.5 L 4.792969 3.75 L 18.207031 3.75 Z M 18.207031 22.5 "/>
</g>
</svg>
