<?xml version="1.0" encoding="UTF-8"?>
<svg xmlns="http://www.w3.org/2000/svg" xmlns:xlink="http://www.w3.org/1999/xlink" width="25px" height="20px" viewBox="0 0 25 20" version="1.1">
<g id="surface1">
<path fill='#fff' style=" stroke:none;fill-rule:nonzero;fill-opacity:1;" d="M 23.992188 13.078125 C 23.847656 12.726562 23.503906 12.464844 23.125 12.464844 L 21.25 12.464844 L 21.25 6.875 C 21.25 5.152344 19.847656 3.75 18.125 3.75 L 13.125 3.75 C 12.433594 3.75 11.875 4.308594 11.875 5 C 11.875 5.691406 12.433594 6.25 13.125 6.25 L 18.125 6.25 C 18.46875 6.25 18.75 6.53125 18.75 6.875 L 18.75 12.464844 L 16.875 12.464844 C 16.496094 12.464844 16.15625 12.691406 16.007812 13.042969 C 15.863281 13.394531 15.945312 13.796875 16.210938 14.066406 L 19.335938 17.191406 C 19.519531 17.410156 19.761719 17.5 20 17.5 C 20.238281 17.5 20.480469 17.410156 20.664062 17.226562 L 23.789062 14.097656 C 24.054688 13.832031 24.136719 13.429688 23.992188 13.078125 Z M 11.875 13.75 L 6.875 13.75 C 6.53125 13.75 6.25 13.46875 6.25 13.125 L 6.25 7.5 L 8.125 7.5 C 8.503906 7.5 8.84375 7.273438 8.992188 6.921875 C 9.136719 6.570312 9.054688 6.167969 8.789062 5.898438 L 5.664062 2.773438 C 5.480469 2.589844 5.238281 2.5 5 2.5 C 4.761719 2.5 4.519531 2.589844 4.335938 2.773438 L 1.210938 5.898438 C 0.945312 6.167969 0.863281 6.570312 1.007812 6.921875 C 1.15625 7.273438 1.496094 7.5 1.875 7.5 L 3.75 7.5 L 3.75 13.125 C 3.75 14.847656 5.152344 16.25 6.875 16.25 L 11.875 16.25 C 12.566406 16.25 13.125 15.691406 13.125 15 C 13.125 14.308594 12.566406 13.75 11.875 13.75 Z M 11.875 13.75 "/>
</g>
</svg>
