<?xml version="1.0" encoding="UTF-8"?>
<svg xmlns="http://www.w3.org/2000/svg" xmlns:xlink="http://www.w3.org/1999/xlink" width="30px" height="30px" viewBox="0 0 30 30" version="1.1">
<g id="surface1">
<path style=" stroke:none;fill-rule:nonzero;fill:rgb(0%,0%,0%);fill-opacity:1;" d="M 29.3125 26 L 22.300781 18.984375 C 23.894531 16.617188 24.683594 13.65625 24.261719 10.507812 C 23.542969 5.144531 19.148438 0.78125 13.78125 0.101562 C 5.800781 -0.910156 -0.910156 5.800781 0.101562 13.78125 C 0.78125 19.152344 5.144531 23.546875 10.507812 24.265625 C 13.660156 24.683594 16.617188 23.898438 18.984375 22.304688 L 26 29.316406 C 26.914062 30.230469 28.398438 30.230469 29.3125 29.316406 C 30.226562 28.398438 30.226562 26.914062 29.3125 26 Z M 4.632812 12.1875 C 4.632812 8.050781 8 4.6875 12.132812 4.6875 C 16.269531 4.6875 19.632812 8.050781 19.632812 12.1875 C 19.632812 16.324219 16.269531 19.6875 12.136719 19.6875 C 8 19.6875 4.632812 16.324219 4.632812 12.1875 Z M 4.632812 12.1875 "/>
</g>
</svg>
