<?xml version="1.0" encoding="UTF-8"?>
<svg xmlns="http://www.w3.org/2000/svg" xmlns:xlink="http://www.w3.org/1999/xlink" width="24px" height="21px" viewBox="0 0 23 21" version="1.1">
<g id="surface1">
<path fill='#fff' style=" stroke:none;fill-rule:nonzero;fill-opacity:1;" d="M 3.832031 0 C 4.292969 0 4.6875 0.335938 4.777344 0.800781 L 4.835938 1.3125 L 21.632812 1.3125 C 22.445312 1.3125 23.09375 2.144531 22.863281 2.980469 L 20.707031 10.855469 C 20.550781 11.421875 20.050781 11.8125 19.476562 11.8125 L 6.816406 11.8125 L 7.183594 13.78125 L 19.484375 13.78125 C 20.015625 13.78125 20.445312 14.21875 20.445312 14.765625 C 20.445312 15.3125 20.015625 15.75 19.484375 15.75 L 6.351562 15.75 C 5.929688 15.75 5.535156 15.414062 5.445312 14.949219 L 3.039062 1.96875 L 0.957031 1.96875 C 0.429688 1.96875 0 1.527344 0 0.984375 C 0 0.441406 0.429688 0 0.957031 0 Z M 10.859375 7.382812 L 12.617188 7.382812 L 12.617188 9.1875 C 12.617188 9.640625 12.941406 10.007812 13.417969 10.007812 C 13.855469 10.007812 14.214844 9.640625 14.214844 9.1875 L 14.214844 7.382812 L 15.972656 7.382812 C 16.410156 7.382812 16.769531 7.015625 16.769531 6.5625 C 16.769531 6.074219 16.410156 5.742188 15.972656 5.742188 L 14.214844 5.742188 L 14.214844 3.9375 C 14.214844 3.484375 13.855469 3.117188 13.417969 3.117188 C 12.941406 3.117188 12.617188 3.484375 12.617188 3.9375 L 12.617188 5.742188 L 10.859375 5.742188 C 10.386719 5.742188 10.0625 6.074219 10.0625 6.5625 C 10.0625 7.015625 10.386719 7.382812 10.859375 7.382812 Z M 5.109375 19.03125 C 5.109375 17.945312 5.96875 17.0625 7.027344 17.0625 C 8.085938 17.0625 8.945312 17.945312 8.945312 19.03125 C 8.945312 20.117188 8.085938 21 7.027344 21 C 5.96875 21 5.109375 20.117188 5.109375 19.03125 Z M 20.445312 19.03125 C 20.445312 20.117188 19.585938 21 18.527344 21 C 17.46875 21 16.609375 20.117188 16.609375 19.03125 C 16.609375 17.945312 17.46875 17.0625 18.527344 17.0625 C 19.585938 17.0625 20.445312 17.945312 20.445312 19.03125 Z M 20.445312 19.03125 "/>
</g>
</svg>
